<?xml version="1.0" encoding="utf-8"?>
<!-- Generator: Adobe Illustrator 24.0.2, SVG Export Plug-In . SVG Version: 6.00 Build 0)  -->
<svg version="1.1" id="Camada_1" xmlns="http://www.w3.org/2000/svg" xmlns:xlink="http://www.w3.org/1999/xlink" x="0px" y="0px"
	 viewBox="0 0 1080 1080" style="enable-background:new 0 0 1080 1080;" xml:space="preserve">
<style type="text/css">
	.st0{fill:#EC0007;}
</style>
<path class="st0" d="M7.2,66.3c0.9-2.9,1.9-5.9,2.8-8.8c13.7-48,72.1-66,110.5-34c4.2,3.5,8.1,7.6,12,11.5
	c132.7,132.6,265.4,265.3,398,398c2.9,2.9,16.5,2.6,19.6-0.5c133.8-134,267.8-267.8,401.6-401.8C974,8.3,1000,1.1,1029.6,12.5
	c41.4,15.9,56,68.4,29.4,104c-3.9,5.2-8.6,10-13.3,14.6C912.8,264,779.8,396.9,646.9,529.7c-2.9,2.9-3.8,15.9-1,18.7
	c134.3,134,268.4,268.2,402.6,402.2c18.1,18.1,27.5,38.9,22.6,64.7c-5,26.5-21,43.8-46,53.2c-12.6,3.8-24.7,5.4-35.6,2.8
	c-20-5.9-34.5-19.5-48.8-33.8C810.6,907.1,680.3,777,550.2,646.7c-3.1-3.1-17.3-3.1-20.4,0.1c-130.4,130.5-260.9,260.9-391.3,391.5
	c-14.1,14.1-28.4,27.3-48.1,33c-21.8,5.9-45.6-6-58.7-16.3c-17.3-15.2-19.7-26-24.6-42c-1.3-6.4-1.2-14.2,0-20.8
	c5.6-22.9,21.3-38.7,37.3-54.7C174.4,808,304,678.2,433.8,548.6c2.9-2.9,2.5-15.7-0.4-18.6C302.9,399.6,172.6,269.1,41.9,139
	c-15.6-15.7-30.2-31.5-34.7-54C7.2,78.8,7.2,72.5,7.2,66.3z"/>
</svg>
